<?xml version="1.0" encoding="UTF-8"?>
<svg xmlns="http://www.w3.org/2000/svg" viewBox="0 0 512 512" width="512" height="512">
  <path fill="#d22730" d="M256,0c0,0,35.8,35.3,72.1,65.8c0,0-9.5-143.6,57.4-51.5c0,0,7.4,94.4,75.3,140.8c0,0-19-28-11.1-47.8
    c0,0,57.9,51,57.9,146.8c0,0-5.8-17.9-32.6-34.7c0,0,16.3,183.1-182.1,293c-15.8-8.9-24.2-24.2-24.2-24.2
    c0,0-7.4,15.3-24.2,24.2C76.7,402.5,93,219.4,93,219.4c-26.8,16.8-32.6,34.7-32.6,34.7c0-95.7,57.9-146.8,57.9-146.8
    c7.9,19.8-11.1,47.8-11.1,47.8c67.9-46.3,75.3-140.8,75.3-140.8c67,92.3,57.4,51.5,57.4,51.5C220.2,35.3,256,0,256,0z"/>
</svg> 